<?xml version="1.0" encoding="UTF-8" ?>
<svg version="1.1" width="16" height="16" xmlns="http://www.w3.org/2000/svg" shape-rendering="crispEdges">
<rect x="2" y="0" width="1" height="1" fill="#DBD7CA" />
<rect x="2" y="1" width="1" height="1" fill="#DBD7CA" />
<rect x="3" y="1" width="1" height="1" fill="#DAD7CA" />
<rect x="4" y="1" width="1" height="1" fill="#726960" />
<rect x="15" y="1" width="1" height="1" fill="#DBD7CB" />
<rect x="2" y="2" width="1" height="1" fill="#DBD6CA" />
<rect x="3" y="2" width="1" height="1" fill="#B6B3A6" />
<rect x="4" y="2" width="1" height="1" fill="#C1BCAF" />
<rect x="5" y="2" width="1" height="1" fill="#726960" />
<rect x="13" y="2" width="1" height="1" fill="#716960" />
<rect x="14" y="2" width="1" height="1" fill="#DBD7CB" />
<rect x="15" y="2" width="1" height="1" fill="#DBD7CB" />
<rect x="3" y="3" width="1" height="1" fill="#C9C5B8" />
<rect x="4" y="3" width="1" height="1" fill="#999287" />
<rect x="5" y="3" width="1" height="1" fill="#72695F" />
<rect x="7" y="3" width="1" height="1" fill="#7F7367" />
<rect x="8" y="3" width="1" height="1" fill="#72695F" />
<rect x="9" y="3" width="1" height="1" fill="#72695F" />
<rect x="10" y="3" width="1" height="1" fill="#7F7367" />
<rect x="12" y="3" width="1" height="1" fill="#726960" />
<rect x="13" y="3" width="1" height="1" fill="#B3AEA1" />
<rect x="14" y="3" width="1" height="1" fill="#BCB9AC" />
<rect x="15" y="3" width="1" height="1" fill="#DBD7CB" />
<rect x="3" y="4" width="1" height="1" fill="#B1A89B" />
<rect x="4" y="4" width="1" height="1" fill="#7C7165" />
<rect x="5" y="4" width="1" height="1" fill="#7C7165" />
<rect x="6" y="4" width="1" height="1" fill="#7C7165" />
<rect x="7" y="4" width="1" height="1" fill="#877A6C" />
<rect x="8" y="4" width="1" height="1" fill="#72695F" />
<rect x="9" y="4" width="1" height="1" fill="#72695F" />
<rect x="10" y="4" width="1" height="1" fill="#877A6C" />
<rect x="11" y="4" width="1" height="1" fill="#7C7165" />
<rect x="12" y="4" width="1" height="1" fill="#7C7165" />
<rect x="13" y="4" width="1" height="1" fill="#B1A89B" />
<rect x="14" y="4" width="1" height="1" fill="#989083" />
<rect x="15" y="4" width="1" height="1" fill="#DBD7CB" />
<rect x="2" y="5" width="1" height="1" fill="#877A6C" />
<rect x="3" y="5" width="1" height="1" fill="#A19781" />
<rect x="4" y="5" width="1" height="1" fill="#A19781" />
<rect x="5" y="5" width="1" height="1" fill="#A19781" />
<rect x="6" y="5" width="1" height="1" fill="#A19781" />
<rect x="7" y="5" width="1" height="1" fill="#A19781" />
<rect x="8" y="5" width="1" height="1" fill="#72695F" />
<rect x="9" y="5" width="1" height="1" fill="#72695F" />
<rect x="10" y="5" width="1" height="1" fill="#A19781" />
<rect x="11" y="5" width="1" height="1" fill="#A19781" />
<rect x="12" y="5" width="1" height="1" fill="#A19781" />
<rect x="13" y="5" width="1" height="1" fill="#A19781" />
<rect x="14" y="5" width="1" height="1" fill="#877A6C" />
<rect x="2" y="6" width="1" height="1" fill="#988D7A" />
<rect x="3" y="6" width="1" height="1" fill="#CCC8A5" />
<rect x="4" y="6" width="1" height="1" fill="#584A33" />
<rect x="5" y="6" width="1" height="1" fill="#242629" />
<rect x="6" y="6" width="1" height="1" fill="#584A33" />
<rect x="7" y="6" width="1" height="1" fill="#CCC8A5" />
<rect x="8" y="6" width="1" height="1" fill="#72695F" />
<rect x="9" y="6" width="1" height="1" fill="#72695F" />
<rect x="10" y="6" width="1" height="1" fill="#584A33" />
<rect x="11" y="6" width="1" height="1" fill="#242629" />
<rect x="12" y="6" width="1" height="1" fill="#584A33" />
<rect x="13" y="6" width="1" height="1" fill="#CCC8A5" />
<rect x="14" y="6" width="1" height="1" fill="#988D7A" />
<rect x="15" y="6" width="1" height="1" fill="#877B6C" opacity="0.250980" />
<rect x="1" y="7" width="1" height="1" fill="#8F8473" />
<rect x="2" y="7" width="1" height="1" fill="#CCC8A5" />
<rect x="3" y="7" width="1" height="1" fill="#BEB897" />
<rect x="4" y="7" width="1" height="1" fill="#584A33" />
<rect x="5" y="7" width="1" height="1" fill="#121215" />
<rect x="6" y="7" width="1" height="1" fill="#6D5C40" />
<rect x="7" y="7" width="1" height="1" fill="#CCC8A5" />
<rect x="8" y="7" width="1" height="1" fill="#6A6258" />
<rect x="9" y="7" width="1" height="1" fill="#7D7568" />
<rect x="10" y="7" width="1" height="1" fill="#6D5C40" />
<rect x="11" y="7" width="1" height="1" fill="#121215" />
<rect x="12" y="7" width="1" height="1" fill="#584A33" />
<rect x="13" y="7" width="1" height="1" fill="#BEB897" />
<rect x="14" y="7" width="1" height="1" fill="#CCC8A5" />
<rect x="15" y="7" width="1" height="1" fill="#8F8473" />
<rect x="2" y="8" width="1" height="1" fill="#584A33" />
<rect x="3" y="8" width="1" height="1" fill="#584A33" />
<rect x="4" y="8" width="1" height="1" fill="#6D5C40" />
<rect x="5" y="8" width="1" height="1" fill="#6D5C40" />
<rect x="6" y="8" width="1" height="1" fill="#6D5C40" />
<rect x="7" y="8" width="1" height="1" fill="#CCC8A5" />
<rect x="8" y="8" width="1" height="1" fill="#2F2D2A" />
<rect x="9" y="8" width="1" height="1" fill="#2F2D2A" />
<rect x="10" y="8" width="1" height="1" fill="#CCC8A5" />
<rect x="11" y="8" width="1" height="1" fill="#6D5C40" />
<rect x="12" y="8" width="1" height="1" fill="#6D5C40" />
<rect x="13" y="8" width="1" height="1" fill="#584A33" />
<rect x="14" y="8" width="1" height="1" fill="#584A33" />
<rect x="3" y="9" width="1" height="1" fill="#878467" />
<rect x="4" y="9" width="1" height="1" fill="#8A8669" />
<rect x="5" y="9" width="1" height="1" fill="#6D5C40" />
<rect x="6" y="9" width="1" height="1" fill="#CCC8A5" />
<rect x="7" y="9" width="1" height="1" fill="#CCC8A5" />
<rect x="8" y="9" width="1" height="1" fill="#CCC8A5" />
<rect x="9" y="9" width="1" height="1" fill="#CCC8A5" />
<rect x="10" y="9" width="1" height="1" fill="#CCC8A5" />
<rect x="11" y="9" width="1" height="1" fill="#6D5C40" />
<rect x="12" y="9" width="1" height="1" fill="#8A8669" />
<rect x="13" y="9" width="1" height="1" fill="#878467" />
<rect x="3" y="10" width="1" height="1" fill="#8E8C6E" />
<rect x="4" y="10" width="1" height="1" fill="#8E8C6E" />
<rect x="5" y="10" width="1" height="1" fill="#868063" />
<rect x="6" y="10" width="1" height="1" fill="#B9B495" />
<rect x="7" y="10" width="1" height="1" fill="#B9B495" />
<rect x="8" y="10" width="1" height="1" fill="#B9B495" />
<rect x="9" y="10" width="1" height="1" fill="#B9B495" />
<rect x="10" y="10" width="1" height="1" fill="#B9B495" />
<rect x="11" y="10" width="1" height="1" fill="#868063" />
<rect x="12" y="10" width="1" height="1" fill="#8E8C6E" />
<rect x="13" y="10" width="1" height="1" fill="#8E8C6E" />
<rect x="2" y="11" width="1" height="1" fill="#8E8C6E" />
<rect x="3" y="11" width="1" height="1" fill="#8E8C6E" />
<rect x="4" y="11" width="1" height="1" fill="#8E8C6E" />
<rect x="5" y="11" width="1" height="1" fill="#8E8C6E" />
<rect x="6" y="11" width="1" height="1" fill="#8E8C6E" />
<rect x="7" y="11" width="1" height="1" fill="#8E8C6E" />
<rect x="8" y="11" width="1" height="1" fill="#8E8C6E" />
<rect x="9" y="11" width="1" height="1" fill="#8E8C6E" />
<rect x="10" y="11" width="1" height="1" fill="#8E8C6E" />
<rect x="11" y="11" width="1" height="1" fill="#8E8C6E" />
<rect x="12" y="11" width="1" height="1" fill="#8E8C6E" />
<rect x="13" y="11" width="1" height="1" fill="#8E8C6E" />
<rect x="1" y="12" width="1" height="1" fill="#8E8C6E" />
<rect x="2" y="12" width="1" height="1" fill="#8E8C6E" />
<rect x="3" y="12" width="1" height="1" fill="#8E8C6E" />
<rect x="4" y="12" width="1" height="1" fill="#8E8C6E" />
<rect x="5" y="12" width="1" height="1" fill="#8E8C6E" />
<rect x="6" y="12" width="1" height="1" fill="#8E8C6E" />
<rect x="7" y="12" width="1" height="1" fill="#8E8C6E" />
<rect x="8" y="12" width="1" height="1" fill="#8E8C6E" />
<rect x="9" y="12" width="1" height="1" fill="#8E8C6E" />
<rect x="10" y="12" width="1" height="1" fill="#8E8C6E" />
<rect x="11" y="12" width="1" height="1" fill="#877B5C" />
<rect x="12" y="12" width="1" height="1" fill="#877B5C" />
<rect x="0" y="13" width="1" height="1" fill="#8E8C6E" />
<rect x="1" y="13" width="1" height="1" fill="#8E8C6E" />
<rect x="2" y="13" width="1" height="1" fill="#8D8865" />
<rect x="3" y="13" width="1" height="1" fill="#8D8865" />
<rect x="4" y="13" width="1" height="1" fill="#8D8865" />
<rect x="5" y="13" width="1" height="1" fill="#8D8865" />
<rect x="6" y="13" width="1" height="1" fill="#8D8865" />
<rect x="7" y="13" width="1" height="1" fill="#8D8865" />
<rect x="8" y="13" width="1" height="1" fill="#94937A" />
<rect x="9" y="13" width="1" height="1" fill="#94937A" />
<rect x="10" y="13" width="1" height="1" fill="#877B5C" />
<rect x="11" y="13" width="1" height="1" fill="#816B4B" />
<rect x="12" y="13" width="1" height="1" fill="#816B4B" />
<rect x="0" y="14" width="1" height="1" fill="#8E8C6E" />
<rect x="1" y="14" width="1" height="1" fill="#8E8C6E" />
<rect x="2" y="14" width="1" height="1" fill="#8B8256" />
<rect x="3" y="14" width="1" height="1" fill="#8B8256" />
<rect x="4" y="14" width="1" height="1" fill="#8B8256" />
<rect x="5" y="14" width="1" height="1" fill="#8B8256" />
<rect x="6" y="14" width="1" height="1" fill="#8B8256" />
<rect x="7" y="14" width="1" height="1" fill="#8B8256" />
<rect x="8" y="14" width="1" height="1" fill="#9A9780" />
<rect x="9" y="14" width="1" height="1" fill="#98917E" />
<rect x="10" y="14" width="1" height="1" fill="#816B4B" />
<rect x="11" y="14" width="1" height="1" fill="#816B4B" />
<rect x="12" y="14" width="1" height="1" fill="#816B4B" />
<rect x="0" y="15" width="1" height="1" fill="#8E8C6E" />
<rect x="1" y="15" width="1" height="1" fill="#8E8C6E" />
<rect x="2" y="15" width="1" height="1" fill="#8B8256" />
<rect x="3" y="15" width="1" height="1" fill="#8B8256" />
<rect x="4" y="15" width="1" height="1" fill="#8B8256" />
<rect x="5" y="15" width="1" height="1" fill="#8B8256" />
<rect x="6" y="15" width="1" height="1" fill="#8B8256" />
<rect x="7" y="15" width="1" height="1" fill="#8B8256" />
<rect x="8" y="15" width="1" height="1" fill="#8B8256" />
<rect x="9" y="15" width="1" height="1" fill="#816B4B" />
<rect x="10" y="15" width="1" height="1" fill="#816B4B" />
<rect x="11" y="15" width="1" height="1" fill="#816B4B" />
<rect x="12" y="15" width="1" height="1" fill="#816B4B" />
<rect x="13" y="15" width="1" height="1" fill="#7F6850" opacity="0.125490" />
</svg>